<?xml version="1.0" encoding="utf-8"?>
<!-- Generator: Adobe Illustrator 25.3.1, SVG Export Plug-In . SVG Version: 6.00 Build 0)  -->
<svg version="1.1" id="Layer_1" xmlns="http://www.w3.org/2000/svg" xmlns:xlink="http://www.w3.org/1999/xlink" x="0px" y="0px"
	 viewBox="0 0 487.5 484.2" style="enable-background:new 0 0 487.5 484.2;" xml:space="preserve">
<style type="text/css">
	.st0{fill:#5966F1;}
</style>
<g>
	<g>
		<path class="st0" d="M444.4,116.4c-2.3,86.9-18.4,165-61.4,236c-31.9,52.7-75.6,93-130.2,121.2c-3.4,1.8-9.6,1.3-13.2-0.5
			c-71-36.7-121.2-92.8-152.6-165.9C55.8,234.7,45.8,158.7,50.7,80.3c0.3-5.4,2.4-7.2,7.6-7.8c64.5-7.7,125.5-26.8,183.3-56.2
			c2.8-1.4,7.7-1.4,10.6,0.1C310,45.8,370.9,65,435.5,72.5c5.3,0.6,7.2,2.5,7.3,7.9C443.1,94,444,107.7,444.4,116.4z M80.4,98.4
			c-0.4,2.5-0.8,4.1-0.9,5.7c-4.2,53.3,1.4,105.7,17,156.8c23.9,78.7,69.9,140.2,143.8,178.8c3.5,1.8,9.6,1.7,13.1-0.1
			c45.3-23.6,81.9-57,108.6-100.6c43.4-71.1,56.4-149.4,52.8-231.3c-0.1-3.1-1.1-6.2-1.7-9.4c-48.2-5.3-93.6-17.8-137.1-37.2
			c-9.8-4.4-19.5-12.6-29.2-12.6c-9.7,0-19.4,8.3-29.2,12.7C173.9,80.6,128.5,93,80.4,98.4z"/>
		<path class="st0" d="M247.1,427.1c0-121.6,0-242.3,0-364.1c48.8,25,99.4,41.1,154.2,47c0,21.2,1.1,41.8-0.2,62.2
			c-3,44.6-12.6,87.8-31.5,128.6c-24.6,52.9-61.8,94.1-113.2,122.1C253.5,424.3,250.6,425.5,247.1,427.1z"/>
	</g>
</g>
</svg>
